<?xml version="1.0" encoding="utf-8"?>
<!-- Generator: Adobe Illustrator 17.1.0, SVG Export Plug-In . SVG Version: 6.00 Build 0)  -->
<!DOCTYPE svg PUBLIC "-//W3C//DTD SVG 1.1//EN" "http://www.w3.org/Graphics/SVG/1.1/DTD/svg11.dtd">
<svg version="1.1" id="outlined" xmlns="http://www.w3.org/2000/svg" xmlns:xlink="http://www.w3.org/1999/xlink" x="0px" y="0px"
	 viewBox="264.4 174.4 263.2 263.2" enable-background="new 264.4 174.4 263.2 263.2" xml:space="preserve">
<g>
	<g>
		<g>
			<polygon fill="#231F20" points="396,306 449.6,336.9 503.3,367.9 449.7,398.8 396.1,429.8 396,367.9 			"/>
			<polygon fill="#EEE5DE" points="396,306 342.4,275.1 288.7,244.2 342.3,213.2 395.9,182.2 396,244.1 			"/>
			<polygon fill="#EE4036" points="396,306 395.9,244.1 395.8,182.2 449.5,213.1 503.1,243.9 503.2,244.1 503.2,306 503.2,367.9 
				449.6,336.9 			"/>
			<polygon fill="#1B75BB" points="288.9,368 288.8,306.1 288.8,244.2 342.4,275.1 396,306 396.1,367.9 396.1,429.8 342.5,398.9 
				288.9,368 			"/>
			<polygon fill="#231F20" points="396,306 449.6,336.9 503.3,367.9 449.7,398.8 396.1,429.8 396,367.9 			"/>
			<polygon fill="#EEE5DE" points="396,306 342.4,275.1 288.7,244.2 342.3,213.2 395.9,182.2 396,244.1 			"/>
			<polygon fill="#1B75BB" points="396,306 395.9,244.1 395.8,182.2 449.5,213.1 503.1,243.9 503.2,244.1 503.2,306 503.2,367.9 
				449.6,336.9 			"/>
			<polygon fill="#EE4036" points="288.9,368 288.8,306.1 288.8,244.2 342.4,275.1 396,306 396.1,367.9 396.1,429.8 342.5,398.9 
				288.9,368 			"/>
		</g>
	</g>
</g>
</svg>
